# xmcd
#
# Track frame offsets: 
#        150
#        17909
#        43564
#        70825
#        89948
#        108039
#        130651
#        163958
#        188681
#        208397
#        225885
#        253025
#
# Disc length: 3691 seconds
#
# Revision: 0
# Processed by: cddbd v1.5.2PL0 Copyright (c) Steve Scherf et al.
# Submitted via: ExactAudioCopy v0.99pb5
#
DISCID=a30e690c
DTITLE=Craig Erickson - Galactic Roadhouse
DYEAR=2012
DGENRE=Blues
TTITLE0=Back at the Roadhouse
TTITLE1=Torrential Download Blues
TTITLE2=River of Tears
TTITLE3=Rivertown
TTITLE4=Earthquakes and Hurricanes
TTITLE5=You Can't Keep a Good Man Down
TTITLE6=Peace and Love
TTITLE7=Engine #7
TTITLE8=It's Rough All Over
TTITLE9=Prodigal
TTITLE10=Motormouth
TTITLE11=Deep
EXTD=
EXTT0=
EXTT1=
EXTT2=
EXTT3=
EXTT4=
EXTT5=
EXTT6=
EXTT7=
EXTT8=
EXTT9=
EXTT10=
EXTT11=
PLAYORDER=
